# xmcd
#
# Track frame offsets:
#	150
#	11642
#	23535
#	35195
#	46590
#	58157
#	70887
#	81852
#	93672
#	104912
#
# Disc length: 1571 seconds
#
# Revision: 1
# Processed by: cddbd v1.4PL0 Copyright (c) Steve Scherf et al.
# Submitted via: audiograbber 1.81.03
#
DISCID=8406210a
DTITLE=Patsy Cline - Her Legendary Performances
DYEAR=1994
DGENRE=Country
TTITLE0=Walkin' After Midnight
TTITLE1=Honky Tonk Merry Go Round
TTITLE2=A Poor Man's Roses
TTITLE3=Crazy Dreams
TTITLE4=Lonely Street
TTITLE5=Just A Closer Walk With Thee
TTITLE6=I Cried All the Way To The Alter
TTITLE7=I've Loved and Lost Again
TTITLE8=A Stranger In My Arms
TTITLE9=Life's Railway To Heaven
EXTD=Sterling Entertainment Group
EXTT0=
EXTT1=
EXTT2=
EXTT3=
EXTT4=
EXTT5=
EXTT6=
EXTT7=
EXTT8=
EXTT9=
PLAYORDER=
